<svg viewBox="0 0 900 600" xmlns="http://www.w3.org/2000/svg">
    <defs>
        <linearGradient id="a" x1="0%" y1="0%" x2="100%" y2="0%">
            <stop offset="0%" style="stop-color:#f8f9fa;stop-opacity:1" />
            <stop offset="100%" style="stop-color:#e9ecef;stop-opacity:1" />
        </linearGradient>
        <linearGradient id="b" x1="0%" y1="0%" x2="100%" y2="0%">
            <stop offset="0%" style="stop-color:#e3f2fd;stop-opacity:1" />
            <stop offset="100%" style="stop-color:#bbdefb;stop-opacity:1" />
        </linearGradient>
        <linearGradient id="c" x1="0%" y1="0%" x2="100%" y2="0%">
            <stop offset="0%" style="stop-color:#f3e5f5;stop-opacity:1" />
            <stop offset="100%" style="stop-color:#e1bee7;stop-opacity:1" />
        </linearGradient>
        <linearGradient id="d" x1="0%" y1="0%" x2="100%" y2="0%">
            <stop offset="0%" style="stop-color:#e8f5e9;stop-opacity:1" />
            <stop offset="100%" style="stop-color:#c8e6c9;stop-opacity:1" />
        </linearGradient>
        <linearGradient id="e" x1="0%" y1="0%" x2="100%" y2="0%">
            <stop offset="0%" style="stop-color:#fff8e1;stop-opacity:1" />
            <stop offset="100%" style="stop-color:#ffecb3;stop-opacity:1" />
        </linearGradient>
        <linearGradient id="f" x1="0%" y1="0%" x2="100%" y2="0%">
            <stop offset="0%" style="stop-color:#fce4ec;stop-opacity:1" />
            <stop offset="100%" style="stop-color:#f8bbd0;stop-opacity:1" />
        </linearGradient>
        <linearGradient id="g" x1="0%" y1="0%" x2="100%" y2="0%">
            <stop offset="0%" style="stop-color:#e0f2f1;stop-opacity:1" />
            <stop offset="100%" style="stop-color:#b2dfdb;stop-opacity:1" />
        </linearGradient>
        <marker id="h" markerWidth="10" markerHeight="7" refX="9" refY="3.5" orient="auto">
            <path fill="#555" d="m0 0 10 3.5L0 7z" />
        </marker>
    </defs>
    <path fill="#fff" d="M0 0h900v600H0z" />
    <path d="M0 100h900M0 200h900M0 300h900M0 400h900M0 500h900M200 0v600M400 0v600M600 0v600M800 0v600"
        stroke="#f0f0f0" />
    <rect x="300" y="10" width="300" height="40" rx="5" ry="5" fill="#f8f9fa" stroke="#e9ecef" /><text x="450" y="35"
        font-family="Arial" font-size="24" font-weight="bold" text-anchor="middle" fill="#333">Peer-Cargo Data Flow
        Diagram</text>
    <rect x="30" y="80" width="200" height="100" rx="10" ry="10" fill="url(#a)" stroke="#2196f3" stroke-width="2" />
    <text x="130" y="110" font-family="Arial" font-size="16" font-weight="bold" text-anchor="middle" fill="#333">Next.js
        Frontend</text><text x="130" y="135" font-family="Arial" font-size="12" text-anchor="middle" fill="#666">User
        Interface</text><text x="130" y="155" font-family="Arial" font-size="12" text-anchor="middle"
        fill="#666">Client-side
        Validation</text>
    <rect x="350" y="80" width="200" height="100" rx="10" ry="10" fill="url(#a)" stroke="#ff9800" stroke-width="2" />
    <text x="450" y="110" font-family="Arial" font-size="16" font-weight="bold" text-anchor="middle" fill="#333">API
        Gateway</text><text x="450" y="135" font-family="Arial" font-size="12" text-anchor="middle" fill="#666">Request
        Routing</text><text x="450" y="155" font-family="Arial" font-size="12" text-anchor="middle"
        fill="#666">Authentication</text>
    <rect x="670" y="80" width="200" height="100" rx="10" ry="10" fill="url(#a)" stroke="#e91e63" stroke-width="2" />
    <text x="770" y="110" font-family="Arial" font-size="16" font-weight="bold" text-anchor="middle" fill="#333">Clerk
        Authentication</text><text x="770" y="135" font-family="Arial" font-size="12" text-anchor="middle"
        fill="#666">User Identity</text><text x="770" y="155" font-family="Arial" font-size="12" text-anchor="middle"
        fill="#666">Authentication
        Tokens</text>
    <rect x="230" y="240" width="440" height="200" rx="10" ry="10" fill="url(#a)" stroke="#9c27b0" stroke-width="2" />
    <text x="450" y="265" font-family="Arial" font-size="16" font-weight="bold" text-anchor="middle"
        fill="#333">Microservices</text>
    <rect x="250" y="290" width="130" height="50" rx="5" ry="5" fill="url(#b)" stroke="#2196f3" /><text x="315" y="320"
        font-family="Arial" font-size="12" font-weight="bold" text-anchor="middle" fill="#333">GlidePath Service</text>
    <rect x="390" y="290" width="130" height="50" rx="5" ry="5" fill="url(#c)" stroke="#9c27b0" /><text x="455" y="320"
        font-family="Arial" font-size="12" font-weight="bold" text-anchor="middle" fill="#333">DropParcel Service</text>
    <rect x="520" y="290" width="130" height="50" rx="5" ry="5" fill="url(#d)" stroke="#4caf50" /><text x="585" y="320"
        font-family="Arial" font-size="12" font-weight="bold" text-anchor="middle" fill="#333">Matchmaking
        Service</text>
    <rect x="250" y="350" width="130" height="50" rx="5" ry="5" fill="url(#e)" stroke="#ffa000" /><text x="315" y="380"
        font-family="Arial" font-size="12" font-weight="bold" text-anchor="middle" fill="#333">CargoQuest Engine</text>
    <rect x="390" y="350" width="130" height="50" rx="5" ry="5" fill="url(#f)" stroke="#e91e63" /><text x="455" y="380"
        font-family="Arial" font-size="12" font-weight="bold" text-anchor="middle" fill="#333">Chat
        Gateway</text>
    <rect x="520" y="350" width="130" height="50" rx="5" ry="5" fill="url(#g)" stroke="#009688" /><text x="585" y="380"
        font-family="Arial" font-size="12" font-weight="bold" text-anchor="middle" fill="#333">Payment
        Service</text>
    <rect x="350" y="480" width="200" height="80" rx="10" ry="10" fill="url(#a)" stroke="#03a9f4" stroke-width="2" />
    <text x="450" y="510" font-family="Arial" font-size="16" font-weight="bold" text-anchor="middle" fill="#333">Kafka
        Message Queue</text><text x="450" y="535" font-family="Arial" font-size="12" text-anchor="middle"
        fill="#666">Event Distribution</text>
    <rect x="30" y="240" width="160" height="80" rx="10" ry="10" fill="url(#a)" stroke="#4caf50" stroke-width="2" />
    <text x="110" y="270" font-family="Arial" font-size="16" font-weight="bold" text-anchor="middle" fill="#333">Redis
        Cache</text><text x="110" y="295" font-family="Arial" font-size="12" text-anchor="middle" fill="#666">Session
        Data</text><text x="110" y="315" font-family="Arial" font-size="12" text-anchor="middle" fill="#666">Frequent
        Queries</text>
    <rect x="30" y="480" width="160" height="80" rx="10" ry="10" fill="url(#a)" stroke="#673ab7" stroke-width="2" />
    <text x="110" y="510" font-family="Arial" font-size="16" font-weight="bold" text-anchor="middle"
        fill="#333">PostgreSQL</text><text x="110" y="535" font-family="Arial" font-size="12" text-anchor="middle"
        fill="#666">Persistent Storage</text>
    <rect x="710" y="240" width="160" height="80" rx="10" ry="10" fill="url(#a)" stroke="#ffa000" stroke-width="2" />
    <text x="790" y="270" font-family="Arial" font-size="16" font-weight="bold" text-anchor="middle" fill="#333">Stripe
        API</text><text x="790" y="295" font-family="Arial" font-size="12" text-anchor="middle" fill="#666">Payment
        Processing</text>
    <rect x="710" y="350" width="160" height="80" rx="10" ry="10" fill="url(#a)" stroke="#795548" stroke-width="2" />
    <text x="790" y="380" font-family="Arial" font-size="16" font-weight="bold" text-anchor="middle" fill="#333">AWS
        S3</text><text x="790" y="405" font-family="Arial" font-size="12" text-anchor="middle" fill="#666">File
        Storage</text>
    <rect x="710" y="480" width="160" height="80" rx="10" ry="10" fill="url(#a)" stroke="#009688" stroke-width="2" />
    <text x="790" y="510" font-family="Arial" font-size="16" font-weight="bold" text-anchor="middle"
        fill="#333">Notification Service</text><text x="790" y="535" font-family="Arial" font-size="12"
        text-anchor="middle" fill="#666">Alerts and Updates</text>
    <path stroke="#555" stroke-width="2" marker-end="url(#h)" d="M230 130h120" />
    <rect x="260" y="110" width="60" height="16" fill="#fff" fill-opacity=".8" rx="3" ry="3" /><text x="290" y="122"
        font-family="Arial" font-size="10" text-anchor="middle" fill="#555">HTTP Requests</text>
    <path stroke="#555" stroke-width="2" marker-end="url(#h)" d="M350 150H230" />
    <rect x="260" y="155" width="70" height="16" fill="#fff" fill-opacity=".8" rx="3" ry="3" /><text x="290" y="167"
        font-family="Arial" font-size="10" text-anchor="middle" fill="#555">JSON Responses</text>
    <path stroke="#555" stroke-width="2" marker-end="url(#h)" d="M550 110h120" />
    <rect x="580" y="90" width="60" height="16" fill="#fff" fill-opacity=".8" rx="3" ry="3" /><text x="610" y="102"
        font-family="Arial" font-size="10" text-anchor="middle" fill="#555">Authenticate</text>
    <path stroke="#555" stroke-width="2" marker-end="url(#h)" d="M670 150H550" />
    <rect x="580" y="155" width="60" height="16" fill="#fff" fill-opacity=".8" rx="3" ry="3" /><text x="610" y="167"
        font-family="Arial" font-size="10" text-anchor="middle" fill="#555">Auth Token</text>
    <path stroke="#555" stroke-width="2" marker-end="url(#h)" d="M450 180v60" />
    <rect x="410" y="205" width="80" height="16" fill="#fff" fill-opacity=".8" rx="3" ry="3" /><text x="450" y="217"
        font-family="Arial" font-size="10" text-anchor="middle" fill="#555">Route Requests</text>
    <path stroke="#555" stroke-width="2" marker-end="url(#h)" d="M110 180v60" />
    <rect x="70" y="205" width="80" height="16" fill="#fff" fill-opacity=".8" rx="3" ry="3" /><text x="110" y="217"
        font-family="Arial" font-size="10" text-anchor="middle" fill="#555">Cache Queries</text>
    <path stroke="#555" stroke-width="2" marker-end="url(#h)" d="M450 440v40" />
    <rect x="410" y="455" width="80" height="16" fill="#fff" fill-opacity=".8" rx="3" ry="3" /><text x="450" y="467"
        font-family="Arial" font-size="10" text-anchor="middle" fill="#555">Publish Events</text>
    <path stroke="#555" stroke-width="2" marker-end="url(#h)" d="M400 480v-40" />
    <rect x="310" y="455" width="80" height="16" fill="#fff" fill-opacity=".8" rx="3" ry="3" /><text x="350" y="467"
        font-family="Arial" font-size="10" text-anchor="middle" fill="#555">Consume Events</text>
    <path d="M230 340c-60 40-80 80-100 140" stroke="#555" stroke-width="2" fill="none" marker-end="url(#h)" />
    <rect x="150" y="400" width="80" height="16" fill="#fff" fill-opacity=".8" rx="3" ry="3" /><text x="190" y="412"
        font-family="Arial" font-size="10" text-anchor="middle" fill="#555">CRUD Operations</text>
    <path d="M670 320c10-15 30-30 40-40" stroke="#555" stroke-width="2" fill="none" marker-end="url(#h)" />
    <rect x="650" y="285" width="90" height="16" fill="#fff" fill-opacity=".8" rx="3" ry="3" /><text x="695" y="297"
        font-family="Arial" font-size="10" text-anchor="middle" fill="#555">Process Payment</text>
    <path stroke="#555" stroke-width="2" marker-end="url(#h)" d="m670 360 40 30" />
    <rect x="670" y="360" width="60" height="16" fill="#fff" fill-opacity=".8" rx="3" ry="3" /><text x="700" y="372"
        font-family="Arial" font-size="10" text-anchor="middle" fill="#555">Store Files</text>
    <path stroke="#555" stroke-width="2" marker-end="url(#h)" d="M550 520h160" />
    <rect x="600" y="500" width="80" height="16" fill="#fff" fill-opacity=".8" rx="3" ry="3" /><text x="640" y="512"
        font-family="Arial" font-size="10" text-anchor="middle" fill="#555">Event Triggers</text><text x="30" y="50"
        font-family="Arial" font-size="14" font-weight="bold" fill="#333">Data Flow
        Legend:</text>
    <path stroke="#555" stroke-width="2" marker-end="url(#h)" d="M0 0h20" transform="translate(160 50)" /><text x="30"
        y="4" font-family="Arial" font-size="12" fill="#555" transform="translate(160 50)">Data Transfer</text>
    <path fill="#f3e5f5" stroke="#9c27b0" d="M280 43h15v15h-15z" /><text x="25" y="4" font-family="Arial" font-size="12"
        fill="#555" transform="translate(280 50)">Service</text>
    <path fill="url(#a)" stroke="#03a9f4" d="M0-7h15V8H0z" transform="translate(380 50)" /><text x="25" y="4"
        font-family="Arial" font-size="12" fill="#555" transform="translate(380 50)">System</text>
</svg>